<?xml version="1.0" standalone="no"?>
<!DOCTYPE svg PUBLIC "-//W3C//DTD SVG 20010904//EN"
 "http://www.w3.org/TR/2001/REC-SVG-20010904/DTD/svg10.dtd">
<svg version="1.0" xmlns="http://www.w3.org/2000/svg"
 width="160.000000pt" height="160.000000pt" viewBox="0 0 160.000000 160.000000"
 preserveAspectRatio="xMidYMid meet">
<metadata>
Created by potrace 1.11, written by Peter Selinger 2001-2013
</metadata>
<g transform="translate(0.000000,160.000000) scale(0.100000,-0.100000)"
fill="#000000" stroke="none">
<path d="M696 1492 c-54 -31 -110 -65 -125 -74 -14 -10 -39 -25 -56 -34 -89
-49 -463 -280 -480 -296 -20 -19 -20 -19 26 -61 26 -23 55 -49 66 -57 59 -47
120 -97 137 -112 11 -10 24 -18 29 -18 5 0 6 -13 2 -29 -3 -16 -6 -53 -7 -82
0 -34 -6 -63 -18 -79 -9 -14 -15 -36 -13 -50 14 -82 13 -131 -2 -181 -11 -36
-18 -104 -21 -200 -4 -129 -2 -149 13 -167 36 -42 155 -33 173 12 8 22 6 96
-5 223 -3 35 -15 86 -26 115 -22 54 -33 164 -18 174 15 9 10 61 -6 78 -19 19
-19 24 5 63 13 22 25 31 35 27 8 -3 13 -9 11 -13 -3 -4 -7 -40 -10 -81 -7 -94
12 -138 91 -218 57 -57 173 -147 246 -191 34 -21 41 -22 70 -10 29 12 116 61
142 81 140 105 186 153 230 243 36 72 41 100 30 170 -7 46 -11 41 125 150 41
33 77 62 80 65 3 3 35 29 72 59 37 29 69 60 72 67 5 13 -86 79 -195 141 -73
42 -87 51 -141 86 -31 20 -61 37 -67 37 -5 0 -11 3 -13 8 -1 4 -19 16 -38 26
-32 17 -73 43 -180 111 -34 22 -128 75 -133 75 -1 0 -46 -26 -101 -58z m-348
-722 c-7 -10 -14 -18 -15 -16 -6 6 9 36 18 36 5 0 4 -9 -3 -20z"/>
</g>
</svg>
